{"title":"Fer Mamla Gadbad Gadbad (2013) PUNJABI MOVIE DVD Rip GOPI SAHI E","uid":8885215,"size":681657774,"categoryP":"video","categoryS":"hd___movies","magnet":"?xt=urn:btih:f134819e4d5be88d2e0c308eab2f2dcd35efba09&amp;dn=Fer+Mamla+Gadbad+Gadbad+%282013%29+PUNJABI+MOVIE+DVD+Rip+GOPI+SAHI+E&amp;tr=udp%3A%2F%2Ftracker.openbittorrent.com%3A80&amp;tr=udp%3A%2F%2Fopen.demonii.com%3A1337&amp;tr=udp%3A%2F%2Ftracker.coppersurfer.tk%3A6969&amp;tr=udp%3A%2F%2Fexodus.desync.com%3A6969","seeders":0,"leechers":1,"uploader":"jatt13","files":11,"time":1378438619,"description":"IMDB  [url]http://www.imdb.com/title/tt2949246/[/url]\n\n[img]http://imageshack.us/a/img802/6375/6mv9.jpg[/img]\n\n[color=green][size=5]Directors:Rimpy Prince, Harpreet Singh\nStars:Roshan Prince, Japji Khaira, Bhanushree Mehra\n[/size][/color]\n[color=black][size=5]Video\nID                             : 0\nFormat                         : AVC\nFormat/Info                    : Advanced Video Codec\nFormat profile                 : &lt;a class=&quot;__cf_email__&quot; href=&quot;/cdn-cgi/l/email-protection&quot; data-cfemail=&quot;612c00080f212d544f50&quot;&gt;[email&amp;#160;protected]&lt;/a&gt;&lt;script cf-hash='f9e31' type=&quot;text/javascript&quot;&gt;\n/* &lt;![CDATA[ */!function(){try{var t=&quot;currentScript&quot;in document?document.currentScript:function(){for(var t=document.getElementsByTagName(&quot;script&quot;),e=t.length;e--;)if(t[e].getAttribute(&quot;cf-hash&quot;))return t[e]}();if(t&amp;&amp;t.previousSibling){var e,r,n,i,c=t.previousSibling,a=c.getAttribute(&quot;data-cfemail&quot;);if(a){for(e=&quot;&quot;,r=parseInt(a.substr(0,2),16),n=2;a.length-n;n+=2)i=parseInt(a.substr(n,2),16)^r,e+=String.fromCharCode(i);e=document.createTextNode(e),c.parentNode.replaceChild(e,c)}}}catch(u){}}();/* ]]&gt; */&lt;/script&gt;\nFormat settings, CABAC         : Yes\nFormat settings, ReFrames      : 1 frame\nCodec ID                       : H264\nDuration                       : 2h 13mn\nBit rate                       : 601 Kbps\nWidth                          : 640 pixels\nHeight                         : 360 pixels\nDisplay aspect ratio           : 16:9\nFrame rate                     : 25.000 fps\nColor space                    : YUV\nChroma subsampling             : 4:2:0\nBit depth                      : 8 bits\nScan type                      : Progressive\nBits/(Pixel*Frame)             : 0.104\nStream size                    : 573 MiB (89%)\n\nAudio\nID                             : 1\nFormat                         : MPEG Audio\nFormat version                 : Version 1\nFormat profile                 : Layer 2\nCodec ID                       : 50\nDuration                       : 2h 13mn\nBit rate mode                  : Constant\nBit rate                       : 64.0 Kbps\nChannel(s)                     : 2 channels\nSampling rate                  : 44.1 KHz\nCompression mode               : Lossy\nStream size                    : 60.7 MiB (9%)\nAlignment                      : Aligned on interleaves\nInterleave, duration           : 41 ms (1.02 video frame)\nInterleave, preload duration   : 52 ms[/size][/color]\n\n[img]http://imageshack.us/a/img547/6122/j9lk.jpg[/img]\n[img]http://imageshack.us/a/img703/4452/g0.png[/img]\n[img]http://imageshack.us/a/img713/8384/9ax1.png[/img]\n[img]http://imageshack.us/a/img191/5282/jz7m.png[/img]\n[img]http://imageshack.us/a/img822/4984/440s.png[/img]\n[img]http://imageshack.us/a/img821/3992/24tm.png[/img]\n[img]http://imageshack.us/a/img268/6856/ha83.png[/img]","torrent":{"xt":"urn:btih:f134819e4d5be88d2e0c308eab2f2dcd35efba09","amp;dn":"Fer+Mamla+Gadbad+Gadbad+%282013%29+PUNJABI+MOVIE+DVD+Rip+GOPI+SAHI+E","amp;tr":["udp%3A%2F%2Ftracker.openbittorrent.com%3A80","udp%3A%2F%2Fopen.demonii.com%3A1337","udp%3A%2F%2Ftracker.coppersurfer.tk%3A6969","udp%3A%2F%2Fexodus.desync.com%3A6969"],"infoHash":"f134819e4d5be88d2e0c308eab2f2dcd35efba09","infoHashBuffer":{"type":"Buffer","data":[241,52,129,158,77,91,232,141,46,12,48,142,171,47,45,205,53,239,186,9]},"announce":[],"urlList":[]}}